<svg xmlns="http://www.w3.org/2000/svg" viewBox="0 0 951.2 258.7"><defs><style>  .cls-1{fill:#fff;}.cls-2{fill:#bbd644;}.cls-3{fill:#70be44;}</style></defs><title>dc_logo_header</title><g data-name="Layer 2"><g data-name="Layer 1"><path class="cls-1" d="M275.9 79.6h18.1v98.3H275.9v-4.1c-3.7 3.4-8.5 5.4-15.2 5.4-18.7 0-28.2-13.2-28.2-32.2v-9.7c0-20.8 11.3-31.9 28.2-31.9 6.1 0 11.3 1.6 15.2 5Zm0 66.2v-9c0-10.4-4.1-16.1-12.7-16.1-9 0-12.7 6.3-12.7 17.7v7.4c0 10.3 2.9 17.9 12.7 17.9C273.4 163.8 275.9 156.1 275.9 145.8Z"/><path class="cls-1" d="M358 167c-5 8.7-13.2 12.1-26.1 12.1-21.4 0-31.6-13.8-31.6-32.2v-9.7c0-21.5 10.8-31.9 29.3-31.9 20.1 0 29.3 11.7 29.3 33.3v8.1H318.4c0.1 9.8 3.3 17 13.4 17 7.6 0 10-2.3 12.7-6.1Zm-39.6-33.2H340.8c-0.4-9.2-4.1-13.1-11-13.1C322.6 120.7 319.2 125.7 318.4 133.8Z"/><path class="cls-1" d="M424.8 177.9H406.7V136.1c0-11.4-4.4-15.1-10.8-15.1s-11.2 4.8-11.2 15v41.9H366.4V106.6h17.8v6c2.7-3.7 7.8-7.3 15.8-7.3 8.5 0 15.5 3.3 19.9 9.5a25.9 25.9 0 0 1 20.5-9.5c15.5 0 24.6 9.4 24.6 27.9v44.6H446.9V136.1c0-10.7-3.7-15.1-11-15.1-6.5 0-11.1 4.8-11.1 15Z"/><path class="cls-1" d="M496.7 135.1h14.1V131c0-8-2.4-10.5-12.7-10.5-7 0-10.4 1-13.4 5.7l-12.8-9c5.3-8.7 13.2-11.8 27.9-11.8 18.4 0 28.8 5.4 28.8 25.8v46.7H510.8v-6.3c-2.8 4.8-7.1 7.6-15.4 7.6-14.8 0-25.1-7.8-25.1-22.4C470.4 141.7 481.8 135.1 496.7 135.1Zm14.1 13.4h-12c-7.4 0-10.7 2.4-10.7 8 0 5.4 4.1 8 10.4 8 8.3 0 12.2-3.6 12.2-13.2Z"/><path class="cls-1" d="M537.5 106.6h17.8v6c2.7-3.6 8.4-7.3 16.4-7.3 14.4 0 26.1 6.8 26.1 27.9v44.6H579.6V136.1c0-11.1-4-15.1-11.4-15.1-8.4 0-12.5 5.6-12.5 15v41.9H537.5Z"/><path class="cls-1" d="M647.6 79.6h18.1v98.3H647.6v-4.1c-3.7 3.4-8.5 5.4-15.2 5.4-18.7 0-28.2-13.2-28.2-32.2v-9.7c0-20.8 11.3-31.9 28.2-31.9 6.1 0 11.3 1.6 15.2 5Zm0 66.2v-9c0-10.4-4.1-16.1-12.7-16.1-9 0-12.7 6.3-12.7 17.7v7.4c0 10.3 2.9 17.9 12.7 17.9C645.1 163.8 647.6 156.1 647.6 145.8Z"/><path class="cls-1" d="M728 167.2c-4.7 7.6-13.1 11.5-24.2 11.5-19.1 0-30-11.4-30-31.5V137c0-20.2 11.3-31.2 30-31.2 10.4 0 18.8 3.7 24.1 11L721.6 121c-4-5.4-10.7-8-17.8-8-14.1 0-22.2 8.6-22.2 23.9v10.3c0 14.1 6.6 24.2 22.2 24.2 7.3 0 14-2.4 17.9-8.7Z"/><path class="cls-1" d="M739 144.2v3c0 14.1 6.6 24.2 21.7 24.2 8.7 0 14.5-2.6 18.5-8.7l6.3 4.4c-5 7.8-12.8 11.5-24.3 11.5-18.9 0-29.9-11.7-29.9-31.5V137c0-20.2 9.7-31.2 27.5-31.2s27.5 11 27.5 31.2v7.3Zm0-7.1h39.3V137c0-15.5-6.7-23.9-19.6-23.9S739 121.6 739 137Z"/><path class="cls-1" d="M797.9 106.6h7.8v9.7c3.7-6.8 10.3-10.5 20.9-10.5 15.8 0 26.2 9.8 26.2 29.9v42.2h-7.8v-42c0-16.2-8.1-22.6-19.2-22.6-13.4 0-20.1 8.8-20.1 21.9v42.7h-7.8Z"/><path class="cls-1" d="M860.9 106.6H870V91h7.8v15.7h17.5v7.3H877.8v39.9c0 11.4 1.3 16.5 12.8 16.5h4.7v7.6h-5c-15.8 0-20.4-7.1-20.4-21.9v-42h-9.1Z"/><path class="cls-1" d="M913.1 135v42.9h-7.8V106.6h7.8v9.7c3-6.5 9-10.5 17.9-10.5 9.3 0 15.4 3.6 20.1 9.8l-6.5 4.8c-3.7-4.8-8-7.3-14.2-7.3C919.3 113.2 913.1 122 913.1 135Z"/><path class="cls-2" d="M203.8 185.2V161.5a32.1 32.1 0 0 1 0-64.2V73.6a55.8 55.8 0 1 0 0 111.6Z"/><path class="cls-2" d="M203.8 258.7v-55A74.4 74.4 0 0 1 203.8 55V0a129.4 129.4 0 0 0 0 258.7Z"/><path class="cls-3" d="M0 73.6V97.3a32.1 32.1 0 0 1 32.1 32.1A32.1 32.1 0 0 1 0 161.5v23.7a55.8 55.8 0 0 0 55.8-55.8A55.8 55.8 0 0 0 0 73.6Z"/><path class="cls-3" d="M0 0V55A74.4 74.4 0 0 1 0 203.7v55A129.4 129.4 0 0 0 129.4 129.4 129.4 129.4 0 0 0 0 0Z"/></g></g></svg>