<?xml version="1.0" encoding="utf-8"?>
<!-- Generator: Adobe Illustrator 24.0.1, SVG Export Plug-In . SVG Version: 6.00 Build 0)  -->
<svg version="1.1" id="Layer_1" xmlns="http://www.w3.org/2000/svg" xmlns:xlink="http://www.w3.org/1999/xlink" x="0px" y="0px"
	 viewBox="0 0 294.3 253.4" style="enable-background:new 0 0 294.3 253.4;" xml:space="preserve">
<style type="text/css">
	.st0{fill:#FFFFFF;}
</style>
<title>ss-icon-white</title>
<g>
	<g>
		<path class="st0" d="M269.4,9.6c-2.2-1.8-5.3-2.3-8-1.2L19.6,105.1c-3,1.2-5,4-5.1,7.3c-0.1,3.2,1.8,6.2,4.7,7.5l75.9,35
			l169.2-139l-137,153.9v79.7l57.2-53.4l44.2,20.4c1.1,0.5,2.2,0.7,3.4,0.7c1.3,0,2.6-0.3,3.8-0.9c2.2-1.2,3.8-3.3,4.2-5.8
			l32.2-193.4C272.8,14.3,271.7,11.4,269.4,9.6z"/>
	</g>
</g>
</svg>
