<svg id="Layer_1" data-name="Layer 1" xmlns="http://www.w3.org/2000/svg" viewBox="0 0 440.316 148.589"><defs><style>.cls-1{fill:#71ab43;}.cls-2{fill:#72bf44;}.cls-3{fill:#c4d945;}.cls-4,.cls-5{fill:#a29fa0;}.cls-4{opacity:0.89;}</style></defs><title>ss-logo</title><path class="cls-1" d="M78.319,7s47.99,5.443,47.427,56.311H94.587s14.461-15.491,9.847-32.095C102.094,22.791,95.171,11.877,78.319,7Z" transform="translate(-9.175 -6.193)"/><path class="cls-2" d="M94.89,56.842a33.09,33.09,0,0,0,6.471-17.226A31.154,31.154,0,0,0,99.5,26.5C92.314,8.576,48.732-3.191,26.539,16.159c-7.55,6.583-10.777,15.159-12.267,20.912,0,0-6.3,32.347,62.087,35.914,0,0-32.381-8.072-32.667-16.518,0,0-4.394-19.709,16.62-23.088C60.312,33.379,94.317,27.373,94.89,56.842Z" transform="translate(-9.175 -6.193)"/><path class="cls-3" d="M11.161,44.412S12.913,74.195,76.482,77.7c0,0,74.831,6.507,44.8,77.084,0,0,12.513-41.3-54.81-46.55C66.471,108.232-3.355,97.47,11.161,44.412Z" transform="translate(-9.175 -6.193)"/><path class="cls-4" d="M182.551,30.654c-2.238-3.3-5.223-5.72-11.129-5.72s-9.824,2.424-9.824,7.71c0,6.154,4.912,7.709,11.129,9.077,8.082,1.74,13.43,4.227,13.43,12.31,0,5.472-3.855,11.192-14.114,11.192-6.839,0-11.813-2.363-14.984-7.026l2.923-2.052c2.673,3.358,5.657,5.719,12.061,5.719,7.648,0,10.508-3.543,10.508-7.708,0-5.161-2.985-7.647-11.067-9.2-8.021-1.554-13.492-4.663-13.492-12.31,0-6.031,3.917-11.067,13.554-11.067,6.652,0,10.88,2.3,13.865,7.025Z" transform="translate(-9.175 -6.193)"/><path class="cls-4" d="M196.789,50.177v1.3c0,6.156,2.86,10.571,9.451,10.571,3.792,0,6.341-1.12,8.082-3.792l2.736,1.927c-2.175,3.42-5.595,5.036-10.631,5.036-8.27,0-13.058-5.1-13.058-13.742V47.006c0-8.829,4.228-13.617,12-13.617s12,4.788,12,13.617v3.171Zm0-3.109h17.16v-.062c0-6.778-2.922-10.446-8.58-10.446s-8.58,3.731-8.58,10.446Z" transform="translate(-9.175 -6.193)"/><path class="cls-4" d="M226.259,21.95h3.42V54.529c0,4.351.5,7.212,5.907,7.212v3.232c-7.15,0-9.327-3.109-9.327-9.574Z" transform="translate(-9.175 -6.193)"/><path class="cls-4" d="M244.166,21.95h3.42V54.529c0,4.351.5,7.212,5.907,7.212v3.232c-7.15,0-9.327-3.109-9.327-9.574Z" transform="translate(-9.175 -6.193)"/><path class="cls-4" d="M262.631,21.95H266.8v4.165h-4.166Zm.374,11.812h3.419V64.85h-3.419Z" transform="translate(-9.175 -6.193)"/><path class="cls-4" d="M277.305,33.762h3.419V37.99c1.616-2.984,4.477-4.6,9.14-4.6,6.9,0,11.44,4.291,11.44,13.056v18.4h-3.42V46.509c0-7.088-3.543-9.886-8.392-9.886-5.845,0-8.768,3.854-8.768,9.574V64.85h-3.419Z" transform="translate(-9.175 -6.193)"/><path class="cls-4" d="M309.7,47.006c0-8.829,4.415-13.617,12.124-13.617,4.663,0,7.647,1.493,9.389,4.414V33.762h3.419V63.607c0,8.642-4.663,13.429-12.683,13.429-4.975,0-8.27-1.617-10.322-5.036l2.675-1.928c1.677,2.673,4.227,3.793,7.833,3.793,6.279,0,9.078-4.1,9.078-10.258v-2.55c-1.742,2.859-4.726,4.166-9.389,4.166-8.082,0-12.124-5.223-12.124-13.742Zm21.513,4.539V46.632c0-6.093-2.674-10.072-9.14-10.072-5.906,0-8.953,3.668-8.953,10.446v4.475c0,6.529,2.922,10.571,8.953,10.571C329.034,62.052,331.21,57.637,331.21,51.545Z" transform="translate(-9.175 -6.193)"/><path class="cls-5" d="M183.319,94.631c-2.063-3.232-4.539-4.814-9.354-4.814-4.333,0-6.672,2-6.672,5.227,0,3.713,3.027,5.364,9.355,6.947,9.9,2.476,14.374,6.189,14.374,14.581,0,7.772-5.226,13.825-16.369,13.825-8.322,0-14.1-2.271-18.295-7.772l7.359-5.09c2.545,3.164,5.434,4.745,10.317,4.745,5.5,0,7.36-2.407,7.36-5.3,0-3.3-2-5.158-9.7-7.152-9.353-2.476-14.03-6.947-14.03-14.788,0-7.5,4.952-13.342,16.231-13.342,7.567,0,13.275,2.543,16.645,7.772Z" transform="translate(-9.175 -6.193)"/><path class="cls-5" d="M199.069,82.32h9.492v8.529h-9.492Zm.344,13.067h8.8v34.39h-8.8Z" transform="translate(-9.175 -6.193)"/><path class="cls-5" d="M245.838,129.777H237.1V109.625c0-5.5-2.132-7.291-5.226-7.291-3.165,0-5.434,2.338-5.434,7.222v20.221h-8.8V95.387h8.6v2.889a9.111,9.111,0,0,1,7.635-3.507c4.126,0,7.5,1.581,9.629,4.608a12.533,12.533,0,0,1,9.905-4.608c7.5,0,11.9,4.539,11.9,13.48v21.528h-8.8V109.625c0-5.158-1.788-7.291-5.3-7.291-3.163,0-5.365,2.338-5.365,7.222Z" transform="translate(-9.175 -6.193)"/><path class="cls-5" d="M303.477,114.853c0,8.94-4.54,15.544-13.413,15.544-3.576,0-5.983-.689-7.565-2v14.443h-8.8V95.387h8.8v2.271c1.65-1.858,4.126-2.889,7.634-2.889,7.979,0,13.344,5.571,13.344,15.406Zm-8.8-.55v-3.577c0-5.5-1.72-8.53-6.053-8.53-4.195,0-6.121,2.752-6.121,7.772V114.3c0,4.952,1.168,8.665,6.121,8.665C293.366,122.968,294.673,119.255,294.673,114.3Z" transform="translate(-9.175 -6.193)"/><path class="cls-5" d="M310.629,82.32h8.8v34.459c0,3.713,1.1,5.432,4.814,5.432v7.566c-9.285,0-13.618-2.407-13.618-11Z" transform="translate(-9.175 -6.193)"/><path class="cls-5" d="M332.292,82.32h9.492v8.529h-9.492Zm.345,13.067h8.8v34.39h-8.8Z" transform="translate(-9.175 -6.193)"/><path class="cls-5" d="M352.719,95.387V93.53c0-8.872,3.439-11.21,11.762-11.21h2.545v7.7h-1.651c-3.233,0-3.921,1.444-3.921,4.883v.48h17.333v34.39h-8.8V102.816h-8.529v26.961h-8.735V102.816h-4.4V95.387Z" transform="translate(-9.175 -6.193)"/><path class="cls-5" d="M412.831,124.551c-2.407,4.2-6.4,5.846-12.586,5.846-10.317,0-15.27-6.673-15.27-15.544v-4.678c0-10.386,5.229-15.406,14.169-15.406,9.7,0,14.168,5.639,14.168,16.1v3.92h-19.6c.067,4.745,1.58,8.184,6.464,8.184,3.646,0,4.814-1.1,6.122-2.957Zm-19.119-16.027h10.8c-.206-4.47-1.994-6.328-5.3-6.328C395.705,102.2,394.055,104.6,393.712,108.524Z" transform="translate(-9.175 -6.193)"/><path class="cls-5" d="M440.755,82.32h8.737v47.457h-8.737v-1.994A10.291,10.291,0,0,1,433.4,130.4c-9.01,0-13.619-6.4-13.619-15.544v-4.678c0-10.041,5.434-15.406,13.619-15.406a10.9,10.9,0,0,1,7.358,2.407Zm0,31.983v-4.335c0-5.02-1.993-7.772-6.12-7.772-4.333,0-6.122,3.027-6.122,8.53V114.3c0,4.952,1.376,8.665,6.122,8.665C439.587,122.968,440.755,119.255,440.755,114.3Z" transform="translate(-9.175 -6.193)"/></svg>