<?xml version="1.0" standalone="no"?>
<!DOCTYPE svg PUBLIC "-//W3C//DTD SVG 20010904//EN"
 "http://www.w3.org/TR/2001/REC-SVG-20010904/DTD/svg10.dtd">
<svg version="1.0" xmlns="http://www.w3.org/2000/svg"
 width="120.000000pt" height="120.000000pt" viewBox="0 0 120.000000 120.000000"
 preserveAspectRatio="xMidYMid meet">
<metadata>
Created by potrace 1.11, written by Peter Selinger 2001-2013
</metadata>
<g transform="translate(0.000000,120.000000) scale(0.100000,-0.100000)"
fill="#000000" stroke="none">
<path d="M130 1071 l0 -131 33 -1 c49 -1 64 -5 124 -35 186 -95 243 -336 118
-506 -57 -77 -163 -138 -241 -138 l-34 0 0 -131 0 -132 63 6 c140 14 269 76
370 180 l37 39 60 -56 c102 -94 221 -150 345 -162 l65 -6 0 129 0 130 -49 6
c-56 7 -131 42 -177 84 -128 116 -146 321 -41 461 53 70 164 132 237 132 l30
0 0 130 0 130 -38 0 c-108 0 -266 -69 -365 -161 l-67 -61 -50 50 c-92 93 -220
154 -353 168 l-67 7 0 -132z"/>
<path d="M130 806 c0 -31 5 -57 10 -57 58 -8 116 -56 131 -111 20 -76 -27
-158 -103 -179 l-38 -10 0 -54 c0 -52 1 -55 25 -55 37 0 128 44 159 76 50 52
75 120 72 193 -3 73 -21 118 -70 169 -38 41 -91 69 -145 78 l-41 7 0 -57z"/>
<path d="M985 844 c-98 -34 -168 -137 -168 -243 0 -129 88 -233 216 -256 l37
-7 0 55 0 54 -45 17 c-63 24 -90 66 -90 136 0 72 22 106 86 133 l49 21 0 53
c0 49 -2 53 -22 52 -13 0 -41 -7 -63 -15z"/>
</g>
</svg>
